<svg xmlns="http://www.w3.org/2000/svg" xmlns:xlink="http://www.w3.org/1999/xlink" width="193" zoomAndPan="magnify" viewBox="0 0 144.75 38.999999" height="52" preserveAspectRatio="xMidYMid meet" version="1.0"><defs><g/><clipPath id="22dfa19fee"><path d="M 3.894531 6.179688 L 33.839844 6.179688 L 33.839844 36.117188 L 3.894531 36.117188 Z M 3.894531 6.179688 " clip-rule="nonzero"/></clipPath></defs><g fill="#b4b4b4" fill-opacity="1"><g transform="translate(37.767582, 25.103049)"><g><path d="M 0.828125 -0.265625 L 0.828125 -13 C 0.828125 -13.175781 0.914062 -13.265625 1.09375 -13.265625 L 5.078125 -13.265625 C 5.859375 -13.265625 6.445312 -13.054688 6.84375 -12.640625 C 7.25 -12.234375 7.453125 -11.640625 7.453125 -10.859375 L 7.453125 -2.390625 C 7.453125 -1.617188 7.25 -1.023438 6.84375 -0.609375 C 6.445312 -0.203125 5.859375 0 5.078125 0 L 1.09375 0 C 0.914062 0 0.828125 -0.0859375 0.828125 -0.265625 Z M 3.078125 -2.1875 L 4.609375 -2.1875 C 5.046875 -2.1875 5.265625 -2.40625 5.265625 -2.84375 L 5.265625 -10.390625 C 5.265625 -10.847656 5.046875 -11.078125 4.609375 -11.078125 L 3.078125 -11.078125 Z M 3.078125 -2.1875 "/></g></g></g><g fill="#b4b4b4" fill-opacity="1"><g transform="translate(45.392691, 25.103049)"><g><path d="M 8.65625 0 L 7.046875 0 C 6.898438 0 6.8125 -0.078125 6.78125 -0.234375 L 6.25 -2.328125 L 3.140625 -2.328125 L 2.625 -0.234375 C 2.582031 -0.078125 2.492188 0 2.359375 0 L 0.734375 0 C 0.535156 0 0.460938 -0.09375 0.515625 -0.28125 L 3.265625 -11.375 C 3.296875 -11.53125 3.390625 -11.609375 3.546875 -11.609375 L 5.859375 -11.609375 C 6.003906 -11.609375 6.097656 -11.53125 6.140625 -11.375 L 8.890625 -0.28125 C 8.941406 -0.09375 8.863281 0 8.65625 0 Z M 5.734375 -4.25 L 4.6875 -8.75 L 3.640625 -4.25 Z M 5.734375 -4.25 "/></g></g></g><g fill="#b4b4b4" fill-opacity="1"><g transform="translate(54.625973, 25.103049)"><g><path d="M 7.453125 -9.21875 L 7.453125 -5.890625 C 7.453125 -4.921875 7.144531 -4.242188 6.53125 -3.859375 L 7.390625 -0.296875 C 7.453125 -0.0976562 7.375 0 7.15625 0 L 5.53125 0 C 5.382812 0 5.289062 -0.078125 5.25 -0.234375 L 4.453125 -3.5 L 2.984375 -3.5 L 2.984375 -0.265625 C 2.984375 -0.0859375 2.894531 0 2.71875 0 L 1.09375 0 C 0.914062 0 0.828125 -0.0859375 0.828125 -0.265625 L 0.828125 -11.34375 C 0.828125 -11.519531 0.914062 -11.609375 1.09375 -11.609375 L 5.078125 -11.609375 C 5.859375 -11.609375 6.445312 -11.40625 6.84375 -11 C 7.25 -10.59375 7.453125 -10 7.453125 -9.21875 Z M 2.984375 -5.640625 L 4.640625 -5.640625 C 5.085938 -5.640625 5.3125 -5.859375 5.3125 -6.296875 L 5.3125 -8.796875 C 5.3125 -9.242188 5.085938 -9.46875 4.640625 -9.46875 L 2.984375 -9.46875 Z M 2.984375 -5.640625 "/></g></g></g><g fill="#b4b4b4" fill-opacity="1"><g transform="translate(62.582766, 25.103049)"><g><path d="M 8.65625 0 L 7.046875 0 C 6.898438 0 6.8125 -0.078125 6.78125 -0.234375 L 6.25 -2.328125 L 3.140625 -2.328125 L 2.625 -0.234375 C 2.582031 -0.078125 2.492188 0 2.359375 0 L 0.734375 0 C 0.535156 0 0.460938 -0.09375 0.515625 -0.28125 L 3.265625 -11.375 C 3.296875 -11.53125 3.390625 -11.609375 3.546875 -11.609375 L 5.859375 -11.609375 C 6.003906 -11.609375 6.097656 -11.53125 6.140625 -11.375 L 8.890625 -0.28125 C 8.941406 -0.09375 8.863281 0 8.65625 0 Z M 5.734375 -4.25 L 4.6875 -8.75 L 3.640625 -4.25 Z M 5.734375 -4.25 "/></g></g></g><g fill="#b4b4b4" fill-opacity="1"><g transform="translate(71.981884, 25.103049)"><g><path d="M 1.359375 -11.609375 L 7.640625 -11.609375 C 7.773438 -11.609375 7.863281 -11.570312 7.90625 -11.5 C 7.945312 -11.425781 7.941406 -11.328125 7.890625 -11.203125 L 3.65625 -2.046875 L 7.296875 -2.046875 C 7.472656 -2.046875 7.5625 -1.957031 7.5625 -1.78125 L 7.5625 -0.28125 C 7.5625 -0.113281 7.472656 -0.0195312 7.296875 0 L 0.796875 0 C 0.660156 0 0.570312 -0.0351562 0.53125 -0.109375 C 0.488281 -0.191406 0.492188 -0.285156 0.546875 -0.390625 L 4.78125 -9.421875 L 1.359375 -9.421875 C 1.179688 -9.421875 1.09375 -9.507812 1.09375 -9.6875 L 1.09375 -11.328125 C 1.09375 -11.492188 1.179688 -11.585938 1.359375 -11.609375 Z M 1.359375 -11.609375 "/></g></g></g><g fill="#b4b4b4" fill-opacity="1"><g transform="translate(80.402963, 25.103049)"><g><path d="M 1.09375 0 L 2.8125 0 C 2.988281 0 3.078125 -0.0859375 3.078125 -0.265625 L 3.078125 -11.34375 C 3.078125 -11.519531 2.988281 -11.609375 2.8125 -11.609375 L 1.09375 -11.609375 C 0.914062 -11.609375 0.828125 -11.519531 0.828125 -11.34375 L 0.828125 -0.265625 C 0.828125 -0.0859375 0.914062 0 1.09375 0 Z M 1.09375 0 "/></g></g></g><g fill="#b4b4b4" fill-opacity="1"><g transform="translate(84.315121, 25.103049)"><g/></g></g><g fill="#b4b4b4" fill-opacity="1"><g transform="translate(88.459353, 25.103049)"><g><path d="M 0.765625 -13.265625 L 6.859375 -13.265625 C 7.035156 -13.265625 7.125 -13.175781 7.125 -13 L 7.125 -11.34375 C 7.125 -11.164062 7.035156 -11.078125 6.859375 -11.078125 L 4.9375 -11.078125 L 4.9375 -0.265625 C 4.9375 -0.0859375 4.847656 0 4.671875 0 L 2.953125 0 C 2.773438 0 2.6875 -0.0859375 2.6875 -0.265625 L 2.6875 -11.078125 L 0.765625 -11.078125 C 0.585938 -11.078125 0.5 -11.164062 0.5 -11.34375 L 0.5 -13 C 0.5 -13.175781 0.585938 -13.265625 0.765625 -13.265625 Z M 0.765625 -13.265625 "/></g></g></g><g fill="#b4b4b4" fill-opacity="1"><g transform="translate(96.084736, 25.103049)"><g><path d="M 7.453125 -9.21875 L 7.453125 -5.890625 C 7.453125 -4.921875 7.144531 -4.242188 6.53125 -3.859375 L 7.390625 -0.296875 C 7.453125 -0.0976562 7.375 0 7.15625 0 L 5.53125 0 C 5.382812 0 5.289062 -0.078125 5.25 -0.234375 L 4.453125 -3.5 L 2.984375 -3.5 L 2.984375 -0.265625 C 2.984375 -0.0859375 2.894531 0 2.71875 0 L 1.09375 0 C 0.914062 0 0.828125 -0.0859375 0.828125 -0.265625 L 0.828125 -11.34375 C 0.828125 -11.519531 0.914062 -11.609375 1.09375 -11.609375 L 5.078125 -11.609375 C 5.859375 -11.609375 6.445312 -11.40625 6.84375 -11 C 7.25 -10.59375 7.453125 -10 7.453125 -9.21875 Z M 2.984375 -5.640625 L 4.640625 -5.640625 C 5.085938 -5.640625 5.3125 -5.859375 5.3125 -6.296875 L 5.3125 -8.796875 C 5.3125 -9.242188 5.085938 -9.46875 4.640625 -9.46875 L 2.984375 -9.46875 Z M 2.984375 -5.640625 "/></g></g></g><g fill="#b4b4b4" fill-opacity="1"><g transform="translate(104.041529, 25.103049)"><g><path d="M 8.65625 0 L 7.046875 0 C 6.898438 0 6.8125 -0.078125 6.78125 -0.234375 L 6.25 -2.328125 L 3.140625 -2.328125 L 2.625 -0.234375 C 2.582031 -0.078125 2.492188 0 2.359375 0 L 0.734375 0 C 0.535156 0 0.460938 -0.09375 0.515625 -0.28125 L 3.265625 -11.375 C 3.296875 -11.53125 3.390625 -11.609375 3.546875 -11.609375 L 5.859375 -11.609375 C 6.003906 -11.609375 6.097656 -11.53125 6.140625 -11.375 L 8.890625 -0.28125 C 8.941406 -0.09375 8.863281 0 8.65625 0 Z M 5.734375 -4.25 L 4.6875 -8.75 L 3.640625 -4.25 Z M 5.734375 -4.25 "/></g></g></g><g fill="#b4b4b4" fill-opacity="1"><g transform="translate(111.782264, 25.103049)"><g><path d="M 6.34375 -11.609375 L 7.859375 -11.609375 C 8.109375 -11.609375 8.207031 -11.484375 8.15625 -11.234375 L 5.515625 -0.296875 C 5.472656 -0.0976562 5.351562 0 5.15625 0 L 3.5 0 C 3.3125 0 3.191406 -0.0976562 3.140625 -0.296875 L 0.515625 -11.234375 C 0.460938 -11.484375 0.5625 -11.609375 0.8125 -11.609375 L 2.328125 -11.609375 C 2.523438 -11.609375 2.644531 -11.507812 2.6875 -11.3125 L 4.328125 -3.8125 L 5.984375 -11.3125 C 6.035156 -11.507812 6.15625 -11.609375 6.34375 -11.609375 Z M 6.34375 -11.609375 "/></g></g></g><g fill="#b4b4b4" fill-opacity="1"><g transform="translate(120.286158, 25.103049)"><g><path d="M 7.4375 -11.34375 L 7.4375 -9.6875 C 7.4375 -9.5 7.347656 -9.40625 7.171875 -9.40625 L 3.078125 -9.40625 L 3.078125 -6.84375 L 6.203125 -6.84375 C 6.378906 -6.84375 6.46875 -6.75 6.46875 -6.5625 L 6.46875 -4.921875 C 6.46875 -4.734375 6.378906 -4.640625 6.203125 -4.640625 L 3.078125 -4.640625 L 3.078125 -2.1875 L 7.171875 -2.1875 C 7.347656 -2.1875 7.4375 -2.097656 7.4375 -1.921875 L 7.4375 -0.265625 C 7.4375 -0.0859375 7.347656 0 7.171875 0 L 1.078125 0 C 0.910156 0 0.828125 -0.0859375 0.828125 -0.265625 L 0.828125 -11.34375 C 0.828125 -11.519531 0.910156 -11.609375 1.078125 -11.609375 L 7.171875 -11.609375 C 7.347656 -11.609375 7.4375 -11.519531 7.4375 -11.34375 Z M 7.4375 -11.34375 "/></g></g></g><g fill="#b4b4b4" fill-opacity="1"><g transform="translate(128.558046, 25.103049)"><g><path d="M 3.078125 -2.1875 L 3.078125 -11.34375 C 3.078125 -11.519531 2.988281 -11.609375 2.8125 -11.609375 L 1.09375 -11.609375 C 0.914062 -11.609375 0.828125 -11.519531 0.828125 -11.34375 L 0.828125 -0.265625 C 0.828125 -0.0859375 0.914062 0 1.09375 0 L 6.359375 0 C 6.535156 0 6.625 -0.0859375 6.625 -0.265625 L 6.625 -1.921875 C 6.625 -2.097656 6.535156 -2.1875 6.359375 -2.1875 Z M 3.078125 -2.1875 "/></g></g></g><g fill="#b4b4b4" fill-opacity="1"><g transform="translate(135.18847, 25.103049)"><g><path d="M 3.21875 -11.609375 L 5.078125 -11.609375 C 5.859375 -11.609375 6.445312 -11.40625 6.84375 -11 C 7.25 -10.59375 7.453125 -10 7.453125 -9.21875 L 7.453125 -8.125 C 7.453125 -7.945312 7.363281 -7.859375 7.1875 -7.859375 L 5.515625 -7.859375 C 5.335938 -7.859375 5.25 -7.945312 5.25 -8.125 L 5.25 -8.8125 C 5.25 -9.257812 5.03125 -9.484375 4.59375 -9.484375 L 3.6875 -9.484375 C 3.238281 -9.484375 3.015625 -9.257812 3.015625 -8.8125 L 3.015625 -7.40625 L 7.03125 -6.125 C 7.3125 -6.019531 7.453125 -5.8125 7.453125 -5.5 L 7.453125 -2.390625 C 7.453125 -1.617188 7.25 -1.023438 6.84375 -0.609375 C 6.445312 -0.203125 5.859375 0 5.078125 0 L 3.21875 0 C 2.445312 0 1.851562 -0.203125 1.4375 -0.609375 C 1.03125 -1.023438 0.828125 -1.617188 0.828125 -2.390625 L 0.828125 -3.46875 C 0.828125 -3.644531 0.914062 -3.734375 1.09375 -3.734375 L 2.765625 -3.734375 C 2.941406 -3.734375 3.03125 -3.644531 3.03125 -3.46875 L 3.03125 -2.765625 C 3.03125 -2.328125 3.253906 -2.109375 3.703125 -2.109375 L 4.59375 -2.109375 C 5.03125 -2.109375 5.25 -2.328125 5.25 -2.765625 L 5.25 -4.4375 L 1.28125 -5.734375 C 0.976562 -5.835938 0.828125 -6.039062 0.828125 -6.34375 L 0.828125 -9.21875 C 0.828125 -10 1.03125 -10.59375 1.4375 -11 C 1.851562 -11.40625 2.445312 -11.609375 3.21875 -11.609375 Z M 3.21875 -11.609375 "/></g></g></g><g clip-path="url(#22dfa19fee)"><path fill="#b4b4b4" d="M 29.921875 23.210938 C 30.214844 23.210938 30.546875 23.398438 30.90625 23.765625 C 31.640625 24.519531 31.394531 24.957031 31.097656 25.253906 C 30.960938 25.386719 30.671875 25.644531 30.410156 25.867188 C 30.199219 26.050781 29.867188 25.929688 29.824219 25.652344 L 29.503906 23.703125 C 29.464844 23.449219 29.65625 23.210938 29.917969 23.210938 C 29.917969 23.210938 29.921875 23.210938 29.921875 23.210938 Z M 30.527344 34.316406 L 29.757812 35.175781 C 29.628906 35.320312 29.394531 35.289062 29.304688 35.117188 L 22.53125 21.996094 C 22.425781 21.789062 22.472656 21.535156 22.648438 21.382812 C 22.660156 21.367188 22.675781 21.355469 22.691406 21.34375 C 23.34375 20.765625 24.054688 20.125 24.859375 19.390625 C 25.625 18.691406 26.410156 17.945312 27.199219 17.167969 C 27.21875 17.148438 27.25 17.121094 27.28125 17.089844 C 27.480469 16.890625 27.820312 17.003906 27.863281 17.277344 L 30.601562 34.070312 C 30.613281 34.160156 30.589844 34.25 30.527344 34.316406 Z M 25.046875 29.492188 L 24.839844 29.28125 C 24.761719 29.203125 24.722656 29.097656 24.730469 28.984375 C 24.738281 28.894531 24.78125 28.8125 24.847656 28.75 C 25.011719 28.582031 25.292969 28.625 25.402344 28.835938 L 25.542969 29.113281 C 25.65625 29.328125 25.5 29.59375 25.257812 29.585938 C 25.1875 29.585938 25.113281 29.558594 25.046875 29.492188 Z M 14.898438 33.273438 L 14.8125 33.359375 C 14.746094 33.425781 14.636719 33.414062 14.589844 33.335938 L 12.59375 30.128906 C 12.40625 29.824219 12.484375 29.425781 12.773438 29.214844 C 13.140625 28.945312 13.527344 28.65625 13.929688 28.355469 C 14.175781 28.171875 14.523438 28.324219 14.558594 28.628906 L 15.019531 32.929688 C 15.03125 33.058594 14.988281 33.183594 14.898438 33.273438 Z M 10.425781 29.59375 C 10.363281 29.53125 10.34375 29.441406 10.375 29.363281 L 10.605469 28.738281 C 10.714844 28.4375 10.867188 28.15625 11.054688 27.898438 C 13.246094 24.890625 16.871094 20.25 19.113281 17.71875 C 19.691406 17.066406 20.328125 16.359375 21.0625 15.554688 C 21.851562 14.6875 22.707031 13.792969 23.597656 12.894531 C 24.785156 11.699219 25.738281 10.800781 26.195312 10.371094 C 26.339844 10.234375 26.433594 10.144531 26.472656 10.105469 C 29.222656 7.355469 31.40625 6.226562 32.472656 7.011719 C 32.589844 7.097656 32.742188 7.207031 32.773438 7.242188 C 32.808594 7.277344 32.921875 7.429688 33.007812 7.554688 C 33.792969 8.609375 32.664062 10.796875 29.910156 13.546875 C 29.871094 13.585938 29.78125 13.679688 29.648438 13.824219 C 29.21875 14.28125 28.320312 15.234375 27.121094 16.421875 C 26.226562 17.3125 25.332031 18.164062 24.460938 18.957031 C 23.660156 19.691406 22.953125 20.328125 22.300781 20.90625 C 19.769531 23.144531 15.128906 26.773438 12.117188 28.964844 C 11.859375 29.152344 11.578125 29.304688 11.28125 29.414062 L 10.65625 29.644531 C 10.574219 29.671875 10.484375 29.652344 10.425781 29.59375 Z M 6.65625 25.207031 L 6.746094 25.117188 C 6.835938 25.027344 6.960938 24.984375 7.085938 24.996094 L 11.410156 25.425781 C 11.71875 25.457031 11.871094 25.808594 11.6875 26.054688 C 11.378906 26.46875 11.082031 26.867188 10.804688 27.246094 C 10.59375 27.535156 10.195312 27.613281 9.890625 27.421875 L 6.683594 25.429688 C 6.605469 25.378906 6.59375 25.273438 6.65625 25.207031 Z M 4.890625 10.703125 C 4.71875 10.613281 4.6875 10.382812 4.832031 10.253906 L 5.691406 9.480469 C 5.761719 9.421875 5.851562 9.394531 5.941406 9.410156 L 22.746094 12.148438 C 23.019531 12.195312 23.132812 12.53125 22.933594 12.730469 L 22.933594 12.734375 C 22.125 13.554688 21.351562 14.367188 20.628906 15.160156 C 19.894531 15.964844 19.253906 16.671875 18.675781 17.328125 C 18.664062 17.34375 18.652344 17.355469 18.640625 17.367188 C 18.484375 17.542969 18.230469 17.589844 18.023438 17.484375 Z M 11.253906 15.171875 C 11.113281 15.3125 10.867188 15.3125 10.730469 15.171875 L 10.519531 14.960938 C 10.445312 14.890625 10.40625 14.792969 10.410156 14.691406 C 10.410156 14.664062 10.425781 14.628906 10.449219 14.585938 C 10.53125 14.433594 10.726562 14.375 10.882812 14.457031 L 11.175781 14.609375 C 11.382812 14.714844 11.425781 14.996094 11.261719 15.164062 Z M 14.757812 8.914062 C 15.054688 8.617188 15.488281 8.371094 16.242188 9.105469 C 16.609375 9.464844 16.796875 9.792969 16.800781 10.089844 C 16.800781 10.089844 16.800781 10.089844 16.800781 10.09375 C 16.800781 10.351562 16.5625 10.546875 16.304688 10.503906 L 14.359375 10.1875 C 14.082031 10.140625 13.960938 9.8125 14.144531 9.597656 C 14.367188 9.339844 14.621094 9.046875 14.757812 8.914062 Z M 30.074219 14.226562 C 30.203125 14.089844 30.289062 14 30.328125 13.960938 C 34.199219 10.089844 34.179688 8.148438 33.484375 7.210938 C 33.4375 7.144531 33.277344 6.914062 33.191406 6.828125 C 33.101562 6.738281 32.875 6.578125 32.8125 6.535156 C 31.867188 5.839844 29.929688 5.820312 26.058594 9.691406 C 26.019531 9.730469 25.929688 9.8125 25.792969 9.941406 C 25.464844 10.25 24.882812 10.800781 24.140625 11.527344 C 24.003906 11.664062 23.804688 11.726562 23.613281 11.695312 L 17.414062 10.683594 C 17.335938 10.671875 17.285156 10.589844 17.3125 10.515625 C 17.363281 10.375 17.386719 10.230469 17.386719 10.085938 C 17.382812 9.628906 17.136719 9.15625 16.652344 8.683594 C 15.550781 7.613281 14.734375 8.105469 14.34375 8.5 C 14.058594 8.78125 13.671875 9.242188 13.355469 9.617188 C 13.28125 9.707031 13.199219 9.804688 13.128906 9.882812 C 13.082031 9.941406 13.007812 9.96875 12.9375 9.957031 L 6.035156 8.828125 C 5.769531 8.785156 5.5 8.863281 5.300781 9.042969 L 4.070312 10.148438 C 3.941406 10.261719 3.875 10.429688 3.898438 10.601562 C 3.917969 10.769531 4.023438 10.917969 4.171875 10.992188 L 9.941406 13.972656 C 10.011719 14.007812 10.03125 14.097656 9.988281 14.164062 C 9.882812 14.320312 9.824219 14.503906 9.824219 14.699219 C 9.824219 14.953125 9.921875 15.195312 10.105469 15.375 L 10.3125 15.585938 C 10.496094 15.765625 10.734375 15.867188 10.992188 15.867188 C 11.246094 15.867188 11.488281 15.765625 11.667969 15.585938 L 12.039062 15.21875 C 12.101562 15.152344 12.199219 15.136719 12.28125 15.179688 L 17.457031 17.851562 C 17.726562 17.992188 17.796875 18.34375 17.601562 18.574219 C 16.09375 20.359375 14.265625 22.667969 12.660156 24.773438 C 12.574219 24.882812 12.445312 24.9375 12.308594 24.925781 L 6.917969 24.390625 C 6.761719 24.375 6.609375 24.425781 6.5 24.535156 L 6.050781 24.988281 C 5.9375 25.097656 5.882812 25.25 5.902344 25.40625 C 5.921875 25.5625 6.007812 25.699219 6.140625 25.78125 L 9.902344 28.121094 C 10.046875 28.210938 10.113281 28.386719 10.0625 28.550781 C 9.9375 28.96875 9.78125 29.695312 9.863281 29.859375 C 9.921875 29.988281 10.042969 30.097656 10.160156 30.15625 C 10.324219 30.238281 11.050781 30.082031 11.46875 29.953125 C 11.632812 29.90625 11.804688 29.972656 11.894531 30.117188 L 14.234375 33.878906 C 14.320312 34.011719 14.457031 34.097656 14.613281 34.117188 C 14.632812 34.117188 14.652344 34.117188 14.671875 34.117188 C 14.804688 34.117188 14.933594 34.066406 15.03125 33.96875 L 15.480469 33.519531 C 15.59375 33.410156 15.644531 33.257812 15.628906 33.101562 L 15.054688 27.742188 C 15.039062 27.605469 15.097656 27.472656 15.203125 27.390625 C 17.320312 25.777344 19.644531 23.933594 21.441406 22.421875 C 21.671875 22.226562 22.023438 22.296875 22.164062 22.566406 L 24.832031 27.730469 C 24.871094 27.808594 24.855469 27.910156 24.792969 27.972656 L 24.4375 28.328125 C 24.257812 28.507812 24.148438 28.75 24.144531 29.003906 C 24.136719 29.265625 24.238281 29.511719 24.421875 29.695312 L 24.632812 29.90625 C 24.8125 30.085938 25.054688 30.1875 25.308594 30.1875 C 25.503906 30.1875 25.691406 30.128906 25.847656 30.019531 C 25.914062 29.976562 26 29.996094 26.039062 30.066406 L 29.015625 35.835938 C 29.09375 35.988281 29.238281 36.089844 29.410156 36.113281 C 29.429688 36.113281 29.453125 36.117188 29.472656 36.117188 C 29.621094 36.117188 29.761719 36.054688 29.855469 35.941406 L 30.964844 34.710938 C 31.144531 34.507812 31.222656 34.242188 31.179688 33.976562 L 30.054688 27.070312 C 30.042969 27 30.070312 26.925781 30.125 26.878906 C 30.207031 26.8125 30.300781 26.730469 30.394531 26.652344 C 30.765625 26.339844 31.230469 25.949219 31.511719 25.667969 C 31.902344 25.277344 32.398438 24.457031 31.324219 23.355469 C 30.851562 22.875 30.382812 22.625 29.925781 22.625 C 29.777344 22.621094 29.632812 22.648438 29.496094 22.695312 C 29.417969 22.726562 29.335938 22.675781 29.324219 22.59375 L 28.316406 16.414062 C 28.285156 16.21875 28.347656 16.023438 28.484375 15.882812 C 29.214844 15.140625 29.765625 14.554688 30.074219 14.226562 " fill-opacity="1" fill-rule="nonzero"/></g></svg>